<mxfile host="app.diagrams.net" modified="2024-07-23T06:39:52.507Z" agent="Mozilla/5.0 (Macintosh; Intel Mac OS X 10_15_7) AppleWebKit/537.36 (KHTML, like Gecko) Chrome/126.0.0.0 Safari/537.36" etag="Dtn4hx0GIfq2DuVpRPdZ" version="24.7.1" type="device">
  <diagram id="C5RBs43oDa-KdzZeNtuy" name="Page-1">
    <mxGraphModel dx="1406" dy="2046" grid="1" gridSize="10" guides="1" tooltips="1" connect="1" arrows="1" fold="1" page="1" pageScale="1" pageWidth="827" pageHeight="1169" math="0" shadow="0">
      <root>
        <mxCell id="WIyWlLk6GJQsqaUBKTNV-0" />
        <mxCell id="WIyWlLk6GJQsqaUBKTNV-1" parent="WIyWlLk6GJQsqaUBKTNV-0" />
        <mxCell id="alVqaxvdJDwjDGDu0Fkk-18" value="&lt;p style=&quot;margin:0px;margin-top:4px;text-align:center;&quot;&gt;&lt;b&gt;&lt;i&gt;laboratorySpecificSampleInfo&lt;/i&gt;&lt;/b&gt;&lt;/p&gt;&lt;hr size=&quot;1&quot; style=&quot;border-style:solid;&quot;&gt;&lt;p style=&quot;margin:0px;margin-left:4px;&quot;&gt;+ sample_id: str(37)&lt;br&gt;+ sr_id: str(37)&lt;/p&gt;&lt;p style=&quot;margin:0px;margin-left:4px;&quot;&gt;...&lt;/p&gt;&lt;hr size=&quot;1&quot; style=&quot;border-style:solid;&quot;&gt;&lt;p style=&quot;margin:0px;margin-left:4px;&quot;&gt;&lt;br&gt;&lt;/p&gt;" style="verticalAlign=top;align=left;overflow=fill;html=1;whiteSpace=wrap;swimlaneLine=1;" vertex="1" parent="WIyWlLk6GJQsqaUBKTNV-1">
          <mxGeometry x="770" y="60" width="190" height="90" as="geometry" />
        </mxCell>
        <mxCell id="alVqaxvdJDwjDGDu0Fkk-17" value="&lt;p style=&quot;margin:0px;margin-top:4px;text-align:center;&quot;&gt;&lt;b&gt;&lt;i&gt;laboratorySpecificSampleInfo&lt;/i&gt;&lt;/b&gt;&lt;/p&gt;&lt;hr size=&quot;1&quot; style=&quot;border-style:solid;&quot;&gt;&lt;p style=&quot;margin:0px;margin-left:4px;&quot;&gt;+ sample_id: str(37)&lt;br&gt;+ sr_id: str(37)&lt;/p&gt;&lt;p style=&quot;margin:0px;margin-left:4px;&quot;&gt;...&lt;/p&gt;&lt;hr size=&quot;1&quot; style=&quot;border-style:solid;&quot;&gt;&lt;p style=&quot;margin:0px;margin-left:4px;&quot;&gt;&lt;br&gt;&lt;/p&gt;" style="verticalAlign=top;align=left;overflow=fill;html=1;whiteSpace=wrap;swimlaneLine=1;" vertex="1" parent="WIyWlLk6GJQsqaUBKTNV-1">
          <mxGeometry x="759" y="40" width="190" height="90" as="geometry" />
        </mxCell>
        <mxCell id="10f_xWXHlFIcY2VpPdPC-27" style="edgeStyle=orthogonalEdgeStyle;rounded=0;orthogonalLoop=1;jettySize=auto;html=1;entryX=0;entryY=0.5;entryDx=0;entryDy=0;endArrow=none;endFill=0;" parent="WIyWlLk6GJQsqaUBKTNV-1" edge="1">
          <mxGeometry relative="1" as="geometry">
            <mxPoint x="370" y="575" as="sourcePoint" />
          </mxGeometry>
        </mxCell>
        <mxCell id="alVqaxvdJDwjDGDu0Fkk-0" style="edgeStyle=orthogonalEdgeStyle;rounded=0;orthogonalLoop=1;jettySize=auto;html=1;endArrow=none;endFill=0;strokeWidth=1;endSize=6;jumpSize=6;swimlaneLine=1;exitX=0.5;exitY=0;exitDx=0;exitDy=0;" edge="1" parent="WIyWlLk6GJQsqaUBKTNV-1" target="alVqaxvdJDwjDGDu0Fkk-12" source="alVqaxvdJDwjDGDu0Fkk-8">
          <mxGeometry relative="1" as="geometry">
            <mxPoint x="435.97000000000025" y="-60" as="targetPoint" />
            <Array as="points">
              <mxPoint x="190" y="30" />
              <mxPoint x="190" y="-40" />
              <mxPoint x="436" y="-40" />
            </Array>
            <mxPoint x="360.97" y="30" as="sourcePoint" />
          </mxGeometry>
        </mxCell>
        <mxCell id="alVqaxvdJDwjDGDu0Fkk-6" style="edgeStyle=orthogonalEdgeStyle;rounded=0;orthogonalLoop=1;jettySize=auto;html=1;endArrow=none;endFill=0;exitX=0.5;exitY=1;exitDx=0;exitDy=0;swimlaneLine=1;" edge="1" parent="WIyWlLk6GJQsqaUBKTNV-1" source="alVqaxvdJDwjDGDu0Fkk-8" target="alVqaxvdJDwjDGDu0Fkk-11">
          <mxGeometry relative="1" as="geometry">
            <Array as="points">
              <mxPoint x="174" y="100" />
              <mxPoint x="174" y="150" />
              <mxPoint x="608" y="150" />
            </Array>
          </mxGeometry>
        </mxCell>
        <mxCell id="alVqaxvdJDwjDGDu0Fkk-7" style="edgeStyle=orthogonalEdgeStyle;rounded=0;orthogonalLoop=1;jettySize=auto;html=1;exitX=1;exitY=0.5;exitDx=0;exitDy=0;entryX=0;entryY=0.5;entryDx=0;entryDy=0;endArrow=none;endFill=0;" edge="1" parent="WIyWlLk6GJQsqaUBKTNV-1" source="alVqaxvdJDwjDGDu0Fkk-8" target="alVqaxvdJDwjDGDu0Fkk-10">
          <mxGeometry relative="1" as="geometry" />
        </mxCell>
        <mxCell id="alVqaxvdJDwjDGDu0Fkk-8" value="&lt;p style=&quot;margin:0px;margin-top:4px;text-align:center;&quot;&gt;&lt;b&gt;Users*&lt;/b&gt;&lt;/p&gt;&lt;hr size=&quot;1&quot; style=&quot;border-style:solid;&quot;&gt;&lt;p style=&quot;margin:0px;margin-left:4px;&quot;&gt;+ username: str(50)&lt;br&gt;+ groups: list&lt;/p&gt;&lt;hr size=&quot;1&quot; style=&quot;border-style:solid;&quot;&gt;&lt;p style=&quot;margin:0px;margin-left:4px;&quot;&gt;&lt;br&gt;&lt;/p&gt;" style="verticalAlign=top;align=left;overflow=fill;html=1;whiteSpace=wrap;swimlaneLine=1;" vertex="1" parent="WIyWlLk6GJQsqaUBKTNV-1">
          <mxGeometry x="93.5" y="30" width="190" height="70" as="geometry" />
        </mxCell>
        <mxCell id="alVqaxvdJDwjDGDu0Fkk-10" value="&lt;p style=&quot;margin:0px;margin-top:4px;text-align:center;&quot;&gt;&lt;b&gt;ServiceRequest*&lt;/b&gt;&lt;/p&gt;&lt;hr size=&quot;1&quot; style=&quot;border-style:solid;&quot;&gt;&lt;p style=&quot;margin:0px;margin-left:4px;&quot;&gt;+ sr_id: str(37)&lt;br&gt;+ email: srt(50)&lt;/p&gt;&lt;p style=&quot;margin:0px;margin-left:4px;&quot;&gt;...&lt;/p&gt;&lt;hr size=&quot;1&quot; style=&quot;border-style:solid;&quot;&gt;&lt;p style=&quot;margin:0px;margin-left:4px;&quot;&gt;&lt;br&gt;&lt;/p&gt;" style="verticalAlign=top;align=left;overflow=fill;html=1;whiteSpace=wrap;swimlaneLine=1;" vertex="1" parent="WIyWlLk6GJQsqaUBKTNV-1">
          <mxGeometry x="303.5" y="20" width="190" height="90" as="geometry" />
        </mxCell>
        <mxCell id="alVqaxvdJDwjDGDu0Fkk-11" value="&lt;p style=&quot;margin:0px;margin-top:4px;text-align:center;&quot;&gt;&lt;b&gt;&lt;i&gt;Sample*&lt;/i&gt;&lt;/b&gt;&lt;/p&gt;&lt;hr size=&quot;1&quot; style=&quot;border-style:solid;&quot;&gt;&lt;p style=&quot;margin:0px;margin-left:4px;&quot;&gt;+ sample_id: str(37)&lt;br&gt;+ sr_id: str(37)&lt;/p&gt;&lt;p style=&quot;margin:0px;margin-left:4px;&quot;&gt;...&lt;/p&gt;&lt;hr size=&quot;1&quot; style=&quot;border-style:solid;&quot;&gt;&lt;p style=&quot;margin:0px;margin-left:4px;&quot;&gt;&lt;br&gt;&lt;/p&gt;" style="verticalAlign=top;align=left;overflow=fill;html=1;whiteSpace=wrap;swimlaneLine=1;" vertex="1" parent="WIyWlLk6GJQsqaUBKTNV-1">
          <mxGeometry x="513.5" y="20" width="190" height="90" as="geometry" />
        </mxCell>
        <mxCell id="alVqaxvdJDwjDGDu0Fkk-12" value="&lt;p style=&quot;margin:0px;margin-top:4px;text-align:center;&quot;&gt;&lt;b&gt;+ &lt;i&gt;laboratory&lt;/i&gt;Form: FormDefinition&lt;/b&gt;&lt;/p&gt;&lt;hr size=&quot;1&quot; style=&quot;border-style:solid;&quot;&gt;&lt;p style=&quot;margin:0px;margin-left:4px;&quot;&gt;+ lab: str(37)&lt;br&gt;+ content[]: CustomModelForm(ModelForm)&lt;/p&gt;&lt;p style=&quot;margin:0px;margin-left:4px;&quot;&gt;...&lt;/p&gt;&lt;hr size=&quot;1&quot; style=&quot;border-style:solid;&quot;&gt;&lt;p style=&quot;margin:0px;margin-left:4px;&quot;&gt;&lt;br&gt;&lt;/p&gt;" style="verticalAlign=top;align=left;overflow=fill;html=1;whiteSpace=wrap;swimlaneLine=1;" vertex="1" parent="WIyWlLk6GJQsqaUBKTNV-1">
          <mxGeometry x="353.5" y="-150" width="240" height="90" as="geometry" />
        </mxCell>
        <mxCell id="alVqaxvdJDwjDGDu0Fkk-13" style="edgeStyle=orthogonalEdgeStyle;rounded=0;orthogonalLoop=1;jettySize=auto;html=1;entryX=0.5;entryY=1;entryDx=0;entryDy=0;endArrow=diamond;endFill=0;strokeWidth=1;endSize=6;jumpSize=6;exitX=0.471;exitY=0.007;exitDx=0;exitDy=0;swimlaneLine=1;exitPerimeter=0;" edge="1" parent="WIyWlLk6GJQsqaUBKTNV-1" source="alVqaxvdJDwjDGDu0Fkk-11">
          <mxGeometry relative="1" as="geometry">
            <mxPoint x="605" y="29.99" as="sourcePoint" />
            <mxPoint x="470.0000000000002" y="-60.01" as="targetPoint" />
            <Array as="points">
              <mxPoint x="605" y="21" />
              <mxPoint x="605" y="-20" />
              <mxPoint x="470" y="-20" />
            </Array>
          </mxGeometry>
        </mxCell>
        <mxCell id="alVqaxvdJDwjDGDu0Fkk-14" value="&lt;p style=&quot;margin:0px;margin-top:4px;text-align:center;&quot;&gt;&lt;b&gt;&lt;i&gt;laboratorySpecificSampleInfo*&lt;/i&gt;&lt;/b&gt;&lt;/p&gt;&lt;hr size=&quot;1&quot; style=&quot;border-style:solid;&quot;&gt;&lt;p style=&quot;margin:0px;margin-left:4px;&quot;&gt;+ sample_id: str(37)&lt;br&gt;+ sr_id: str(37)&lt;/p&gt;&lt;p style=&quot;margin:0px;margin-left:4px;&quot;&gt;...&lt;/p&gt;&lt;hr size=&quot;1&quot; style=&quot;border-style:solid;&quot;&gt;&lt;p style=&quot;margin:0px;margin-left:4px;&quot;&gt;&lt;br&gt;&lt;/p&gt;" style="verticalAlign=top;align=left;overflow=fill;html=1;whiteSpace=wrap;swimlaneLine=1;" vertex="1" parent="WIyWlLk6GJQsqaUBKTNV-1">
          <mxGeometry x="749" y="20" width="190" height="90" as="geometry" />
        </mxCell>
        <mxCell id="alVqaxvdJDwjDGDu0Fkk-15" style="edgeStyle=orthogonalEdgeStyle;rounded=0;orthogonalLoop=1;jettySize=auto;html=1;endArrow=none;endFill=0;strokeWidth=1;endSize=6;jumpSize=6;swimlaneLine=1;" edge="1" parent="WIyWlLk6GJQsqaUBKTNV-1">
          <mxGeometry relative="1" as="geometry">
            <mxPoint x="850" y="20" as="sourcePoint" />
            <mxPoint x="470" y="-50" as="targetPoint" />
            <Array as="points">
              <mxPoint x="852" y="20" />
              <mxPoint x="852" y="-20" />
              <mxPoint x="470" y="-20" />
            </Array>
          </mxGeometry>
        </mxCell>
        <mxCell id="alVqaxvdJDwjDGDu0Fkk-16" style="edgeStyle=orthogonalEdgeStyle;rounded=0;orthogonalLoop=1;jettySize=auto;html=1;endArrow=none;endFill=0;strokeWidth=1;endSize=6;jumpSize=6;swimlaneLine=1;" edge="1" parent="WIyWlLk6GJQsqaUBKTNV-1">
          <mxGeometry relative="1" as="geometry">
            <mxPoint x="400" y="20" as="sourcePoint" />
            <mxPoint x="470" y="-50" as="targetPoint" />
            <Array as="points">
              <mxPoint x="400" y="-20" />
              <mxPoint x="470" y="-20" />
            </Array>
          </mxGeometry>
        </mxCell>
        <mxCell id="alVqaxvdJDwjDGDu0Fkk-19" value="&lt;span style=&quot;color: rgb(0, 0, 0); font-family: Helvetica; font-size: 12px; font-style: normal; font-variant-ligatures: normal; font-variant-caps: normal; font-weight: 400; letter-spacing: normal; orphans: 2; text-align: left; text-indent: 0px; text-transform: none; widows: 2; word-spacing: 0px; -webkit-text-stroke-width: 0px; white-space: normal; background-color: rgb(251, 251, 251); text-decoration-thickness: initial; text-decoration-style: initial; text-decoration-color: initial; display: inline !important; float: none;&quot;&gt;laboratory specific sample tables&lt;/span&gt;" style="text;whiteSpace=wrap;html=1;" vertex="1" parent="WIyWlLk6GJQsqaUBKTNV-1">
          <mxGeometry x="790" y="150" width="190" height="40" as="geometry" />
        </mxCell>
        <mxCell id="alVqaxvdJDwjDGDu0Fkk-20" value="PRP-CDM-App" style="swimlane;whiteSpace=wrap;html=1;swimlaneLine=1;" vertex="1" parent="WIyWlLk6GJQsqaUBKTNV-1">
          <mxGeometry x="80" y="-190" width="900" height="500" as="geometry">
            <mxRectangle x="160" y="340" width="120" height="30" as="alternateBounds" />
          </mxGeometry>
        </mxCell>
        <mxCell id="alVqaxvdJDwjDGDu0Fkk-37" value="&lt;p style=&quot;margin:0px;margin-top:4px;text-align:center;&quot;&gt;&lt;b&gt;&lt;i&gt;Instruments*&lt;/i&gt;&lt;/b&gt;&lt;/p&gt;&lt;hr size=&quot;1&quot; style=&quot;border-style:solid;&quot;&gt;&lt;p style=&quot;margin:0px;margin-left:4px;&quot;&gt;+instrument_id: str(37)&lt;br&gt;&lt;/p&gt;&lt;p style=&quot;margin:0px;margin-left:4px;&quot;&gt;+ techique: Technique&lt;/p&gt;&lt;hr size=&quot;1&quot; style=&quot;border-style:solid;&quot;&gt;&lt;p style=&quot;margin:0px;margin-left:4px;&quot;&gt;&lt;br&gt;&lt;/p&gt;" style="verticalAlign=top;align=left;overflow=fill;html=1;whiteSpace=wrap;swimlaneLine=1;" vertex="1" parent="alVqaxvdJDwjDGDu0Fkk-20">
          <mxGeometry x="300" y="390" width="190" height="70" as="geometry" />
        </mxCell>
        <mxCell id="alVqaxvdJDwjDGDu0Fkk-40" style="edgeStyle=orthogonalEdgeStyle;rounded=0;orthogonalLoop=1;jettySize=auto;html=1;endArrow=none;endFill=0;" edge="1" parent="alVqaxvdJDwjDGDu0Fkk-20" source="alVqaxvdJDwjDGDu0Fkk-39">
          <mxGeometry relative="1" as="geometry">
            <mxPoint x="635" y="170" as="targetPoint" />
            <Array as="points">
              <mxPoint x="645" y="170" />
            </Array>
          </mxGeometry>
        </mxCell>
        <mxCell id="alVqaxvdJDwjDGDu0Fkk-39" value="&lt;p style=&quot;margin:0px;margin-top:4px;text-align:center;&quot;&gt;&lt;b&gt;&lt;i&gt;Steps*&lt;/i&gt;&lt;/b&gt;&lt;/p&gt;&lt;hr size=&quot;1&quot; style=&quot;border-style:solid;&quot;&gt;&lt;p style=&quot;margin:0px;margin-left:4px;&quot;&gt;+ sept_id&lt;br&gt;&lt;/p&gt;&lt;p style=&quot;margin:0px;margin-left:4px;&quot;&gt;+ sr_id&lt;/p&gt;&lt;p style=&quot;margin:0px;margin-left:4px;&quot;&gt;+ instrument_id&lt;/p&gt;&lt;p style=&quot;margin:0px;margin-left:4px;&quot;&gt;...&lt;/p&gt;&lt;hr size=&quot;1&quot; style=&quot;border-style:solid;&quot;&gt;&lt;p style=&quot;margin:0px;margin-left:4px;&quot;&gt;&lt;br&gt;&lt;/p&gt;" style="verticalAlign=top;align=left;overflow=fill;html=1;whiteSpace=wrap;swimlaneLine=1;" vertex="1" parent="alVqaxvdJDwjDGDu0Fkk-20">
          <mxGeometry x="550" y="380" width="190" height="100" as="geometry" />
        </mxCell>
        <mxCell id="alVqaxvdJDwjDGDu0Fkk-41" style="edgeStyle=orthogonalEdgeStyle;rounded=0;orthogonalLoop=1;jettySize=auto;html=1;entryX=0;entryY=0.5;entryDx=0;entryDy=0;endArrow=none;endFill=0;" edge="1" parent="alVqaxvdJDwjDGDu0Fkk-20" source="alVqaxvdJDwjDGDu0Fkk-37" target="alVqaxvdJDwjDGDu0Fkk-39">
          <mxGeometry relative="1" as="geometry">
            <Array as="points">
              <mxPoint x="530" y="430" />
              <mxPoint x="530" y="430" />
            </Array>
          </mxGeometry>
        </mxCell>
        <mxCell id="alVqaxvdJDwjDGDu0Fkk-43" style="edgeStyle=orthogonalEdgeStyle;rounded=0;orthogonalLoop=1;jettySize=auto;html=1;entryX=0;entryY=0.5;entryDx=0;entryDy=0;" edge="1" parent="alVqaxvdJDwjDGDu0Fkk-20" source="alVqaxvdJDwjDGDu0Fkk-42" target="alVqaxvdJDwjDGDu0Fkk-37">
          <mxGeometry relative="1" as="geometry" />
        </mxCell>
        <mxCell id="alVqaxvdJDwjDGDu0Fkk-42" value="&lt;p style=&quot;margin:0px;margin-top:4px;text-align:center;&quot;&gt;&lt;b&gt;&lt;i&gt;Technique*&lt;/i&gt;&lt;/b&gt;&lt;/p&gt;&lt;hr size=&quot;1&quot; style=&quot;border-style:solid;&quot;&gt;&lt;p style=&quot;margin:0px;margin-left:4px;&quot;&gt;+instrument_id: str(37)&lt;br&gt;&lt;/p&gt;&lt;p style=&quot;margin:0px;margin-left:4px;&quot;&gt;+ techique: Technique&lt;/p&gt;&lt;hr size=&quot;1&quot; style=&quot;border-style:solid;&quot;&gt;&lt;p style=&quot;margin:0px;margin-left:4px;&quot;&gt;&lt;br&gt;&lt;/p&gt;" style="verticalAlign=top;align=left;overflow=fill;html=1;whiteSpace=wrap;swimlaneLine=1;" vertex="1" parent="alVqaxvdJDwjDGDu0Fkk-20">
          <mxGeometry x="50" y="385" width="190" height="75" as="geometry" />
        </mxCell>
        <mxCell id="alVqaxvdJDwjDGDu0Fkk-45" value="&lt;span style=&quot;color: rgb(0, 0, 0); font-family: Helvetica; font-size: 12px; font-style: normal; font-variant-ligatures: normal; font-variant-caps: normal; font-weight: 400; letter-spacing: normal; orphans: 2; text-align: left; text-indent: 0px; text-transform: none; widows: 2; word-spacing: 0px; -webkit-text-stroke-width: 0px; white-space: normal; background-color: rgb(251, 251, 251); text-decoration-thickness: initial; text-decoration-style: initial; text-decoration-color: initial; display: inline !important; float: none;&quot;&gt;* This classes are mapped in decos_metadata_db&lt;/span&gt;" style="text;whiteSpace=wrap;html=1;" vertex="1" parent="alVqaxvdJDwjDGDu0Fkk-20">
          <mxGeometry x="20" y="470" width="290" height="20" as="geometry" />
        </mxCell>
        <mxCell id="alVqaxvdJDwjDGDu0Fkk-21" value="Home" style="swimlane;whiteSpace=wrap;html=1;swimlaneLine=1;" vertex="1" parent="WIyWlLk6GJQsqaUBKTNV-1">
          <mxGeometry x="78" y="-530" width="902" height="290" as="geometry">
            <mxRectangle x="160" y="340" width="120" height="30" as="alternateBounds" />
          </mxGeometry>
        </mxCell>
        <mxCell id="alVqaxvdJDwjDGDu0Fkk-22" value="&lt;p style=&quot;margin:0px;margin-top:4px;text-align:center;&quot;&gt;&lt;b&gt;+ &lt;i&gt;laboratory&lt;/i&gt;Form: CustomForm&lt;/b&gt;&lt;/p&gt;&lt;hr size=&quot;1&quot; style=&quot;border-style:solid;&quot;&gt;&lt;p style=&quot;margin:0px;margin-left:4px;&quot;&gt;+ :models.Fields&lt;/p&gt;&lt;hr size=&quot;1&quot; style=&quot;border-style:solid;&quot;&gt;&lt;p style=&quot;margin:0px;margin-left:4px;&quot;&gt;&lt;br&gt;&lt;/p&gt;" style="verticalAlign=top;align=left;overflow=fill;html=1;whiteSpace=wrap;swimlaneLine=1;" vertex="1" parent="alVqaxvdJDwjDGDu0Fkk-21">
          <mxGeometry x="392" y="180" width="240" height="60" as="geometry" />
        </mxCell>
        <mxCell id="alVqaxvdJDwjDGDu0Fkk-28" value="&lt;p style=&quot;margin:0px;margin-top:4px;text-align:center;&quot;&gt;&lt;b&gt;+ FormOrchestrator&lt;/b&gt;&lt;/p&gt;&lt;hr size=&quot;1&quot; style=&quot;border-style:solid;&quot;&gt;&lt;p style=&quot;margin:0px;margin-left:4px;&quot;&gt;&lt;span style=&quot;background-color: initial;&quot;&gt;+ formDefinition: FormDefinition&lt;/span&gt;&lt;br&gt;&lt;/p&gt;&lt;hr size=&quot;1&quot; style=&quot;border-style:solid;&quot;&gt;&lt;p style=&quot;margin:0px;margin-left:4px;&quot;&gt;&lt;span style=&quot;text-align: center;&quot;&gt;&amp;nbsp;form_orchestrators(user_lab, request, file_request): forms&lt;/span&gt;&lt;br&gt;&lt;/p&gt;" style="verticalAlign=top;align=left;overflow=fill;html=1;whiteSpace=wrap;swimlaneLine=1;" vertex="1" parent="alVqaxvdJDwjDGDu0Fkk-21">
          <mxGeometry x="12" y="180" width="350" height="80" as="geometry" />
        </mxCell>
        <mxCell id="alVqaxvdJDwjDGDu0Fkk-31" value="" style="edgeStyle=orthogonalEdgeStyle;rounded=0;orthogonalLoop=1;jettySize=auto;html=1;entryX=0.5;entryY=0;entryDx=0;entryDy=0;" edge="1" parent="alVqaxvdJDwjDGDu0Fkk-21" source="alVqaxvdJDwjDGDu0Fkk-29" target="alVqaxvdJDwjDGDu0Fkk-22">
          <mxGeometry relative="1" as="geometry" />
        </mxCell>
        <mxCell id="alVqaxvdJDwjDGDu0Fkk-29" value="&lt;p style=&quot;margin:0px;margin-top:4px;text-align:center;&quot;&gt;&lt;b&gt;+ FormFactory&lt;/b&gt;&lt;/p&gt;&lt;hr size=&quot;1&quot; style=&quot;border-style:solid;&quot;&gt;&lt;p style=&quot;margin:0px;margin-left:4px;&quot;&gt;&lt;br&gt;&lt;/p&gt;&lt;hr size=&quot;1&quot; style=&quot;border-style:solid;&quot;&gt;&lt;p style=&quot;margin:0px;margin-left:4px;&quot;&gt;&lt;span style=&quot;text-align: center;&quot;&gt;&amp;nbsp;+ form_factory(forms)&lt;/span&gt;&lt;br&gt;&lt;/p&gt;" style="verticalAlign=top;align=left;overflow=fill;html=1;whiteSpace=wrap;swimlaneLine=1;" vertex="1" parent="alVqaxvdJDwjDGDu0Fkk-21">
          <mxGeometry x="182" y="50" width="350" height="80" as="geometry" />
        </mxCell>
        <mxCell id="alVqaxvdJDwjDGDu0Fkk-30" style="edgeStyle=orthogonalEdgeStyle;rounded=0;orthogonalLoop=1;jettySize=auto;html=1;entryX=0.25;entryY=1;entryDx=0;entryDy=0;" edge="1" parent="alVqaxvdJDwjDGDu0Fkk-21" source="alVqaxvdJDwjDGDu0Fkk-28" target="alVqaxvdJDwjDGDu0Fkk-29">
          <mxGeometry relative="1" as="geometry">
            <mxPoint x="272" y="140" as="targetPoint" />
          </mxGeometry>
        </mxCell>
        <mxCell id="alVqaxvdJDwjDGDu0Fkk-33" value="Wagtail Render" style="rounded=0;whiteSpace=wrap;html=1;" vertex="1" parent="WIyWlLk6GJQsqaUBKTNV-1">
          <mxGeometry x="819" y="-320" width="120" height="60" as="geometry" />
        </mxCell>
        <mxCell id="alVqaxvdJDwjDGDu0Fkk-35" style="edgeStyle=orthogonalEdgeStyle;rounded=0;orthogonalLoop=1;jettySize=auto;html=1;entryX=0;entryY=0.5;entryDx=0;entryDy=0;" edge="1" parent="WIyWlLk6GJQsqaUBKTNV-1" source="alVqaxvdJDwjDGDu0Fkk-22" target="alVqaxvdJDwjDGDu0Fkk-33">
          <mxGeometry relative="1" as="geometry" />
        </mxCell>
        <mxCell id="alVqaxvdJDwjDGDu0Fkk-32" style="edgeStyle=orthogonalEdgeStyle;rounded=0;orthogonalLoop=1;jettySize=auto;html=1;entryX=0.5;entryY=1;entryDx=0;entryDy=0;exitX=0;exitY=0.5;exitDx=0;exitDy=0;endArrow=none;endFill=0;" edge="1" parent="WIyWlLk6GJQsqaUBKTNV-1" source="alVqaxvdJDwjDGDu0Fkk-12" target="alVqaxvdJDwjDGDu0Fkk-28">
          <mxGeometry relative="1" as="geometry" />
        </mxCell>
      </root>
    </mxGraphModel>
  </diagram>
</mxfile>
